<svg width="70" height="70" viewBox="0 0 70 70" fill="none" xmlns="http://www.w3.org/2000/svg">
<path d="M0 35C0 41.9223 2.05271 48.6892 5.89856 54.4449C9.74441 60.2007 15.2107 64.6867 21.6061 67.3358C28.0015 69.9848 35.0388 70.678 41.8282 69.3275C48.6175 67.977 54.8539 64.6436 59.7487 59.7487C64.6436 54.8539 67.977 48.6175 69.3275 41.8282C70.678 35.0388 69.9848 28.0015 67.3358 21.6061C64.6867 15.2107 60.2007 9.74441 54.4449 5.89856C48.6892 2.05271 41.9223 0 35 0C25.7174 0 16.815 3.68749 10.2513 10.2513C3.68749 16.815 0 25.7174 0 35ZM15 32.5H45.375L31.425 18.4825L35 15L55 35L35 55L31.425 51.4325L45.375 37.5H15V32.5Z" fill="#A58272"/>
</svg>
