<svg width="70" height="70" viewBox="0 0 70 70" fill="none" xmlns="http://www.w3.org/2000/svg">
<path d="M70 35C70 28.0777 67.9473 21.3108 64.1014 15.5551C60.2556 9.79934 54.7893 5.3133 48.3939 2.66423C41.9985 0.0151672 34.9612 -0.677956 28.1718 0.672531C21.3825 2.02301 15.1461 5.35644 10.2513 10.2513C5.35644 15.1461 2.02301 21.3825 0.672531 28.1718C-0.677956 34.9612 0.0151672 41.9985 2.66423 48.3939C5.3133 54.7893 9.79934 60.2556 15.5551 64.1014C21.3108 67.9473 28.0777 70 35 70C44.2826 70 53.185 66.3125 59.7487 59.7487C66.3125 53.185 70 44.2826 70 35ZM55 37.5L24.625 37.5L38.575 51.5175L35 55L15 35L35 15L38.575 18.5675L24.625 32.5L55 32.5L55 37.5Z" fill="#A58272"/>
</svg>
