<svg width="150" height="54" viewBox="0 0 150 54" fill="none" xmlns="http://www.w3.org/2000/svg">
<rect y="0.90332" width="150" height="52.1933" rx="20" fill="#41C1BA"/>
<path d="M44.9455 32.192C44.0495 32.192 43.1908 32.0747 42.3695 31.84C41.5482 31.5947 40.8868 31.28 40.3855 30.896L41.2655 28.944C41.7455 29.2853 42.3108 29.568 42.9615 29.792C43.6228 30.0053 44.2895 30.112 44.9615 30.112C45.4735 30.112 45.8842 30.064 46.1935 29.968C46.5135 29.8613 46.7482 29.7173 46.8975 29.536C47.0468 29.3547 47.1215 29.1467 47.1215 28.912C47.1215 28.6133 47.0042 28.3787 46.7695 28.208C46.5348 28.0267 46.2255 27.8827 45.8415 27.776C45.4575 27.6587 45.0308 27.552 44.5615 27.456C44.1028 27.3493 43.6388 27.2213 43.1695 27.072C42.7108 26.9227 42.2895 26.7307 41.9055 26.496C41.5215 26.2613 41.2068 25.952 40.9615 25.568C40.7268 25.184 40.6095 24.6933 40.6095 24.096C40.6095 23.456 40.7802 22.8747 41.1215 22.352C41.4735 21.8187 41.9962 21.3973 42.6895 21.088C43.3935 20.768 44.2735 20.608 45.3295 20.608C46.0335 20.608 46.7268 20.6933 47.4095 20.864C48.0922 21.024 48.6948 21.2693 49.2175 21.6L48.4175 23.568C47.8948 23.2693 47.3722 23.0507 46.8495 22.912C46.3268 22.7627 45.8148 22.688 45.3135 22.688C44.8122 22.688 44.4015 22.7467 44.0815 22.864C43.7615 22.9813 43.5322 23.136 43.3935 23.328C43.2548 23.5093 43.1855 23.7227 43.1855 23.968C43.1855 24.256 43.3028 24.4907 43.5375 24.672C43.7722 24.8427 44.0815 24.9813 44.4655 25.088C44.8495 25.1947 45.2708 25.3013 45.7295 25.408C46.1988 25.5147 46.6628 25.6373 47.1215 25.776C47.5908 25.9147 48.0175 26.1013 48.4015 26.336C48.7855 26.5707 49.0948 26.88 49.3295 27.264C49.5748 27.648 49.6975 28.1333 49.6975 28.72C49.6975 29.3493 49.5215 29.9253 49.1695 30.448C48.8175 30.9707 48.2895 31.392 47.5855 31.712C46.8922 32.032 46.0122 32.192 44.9455 32.192ZM55.5646 32.128C54.5833 32.128 53.7193 31.936 52.9726 31.552C52.2366 31.168 51.666 30.6453 51.2606 29.984C50.8553 29.312 50.6526 28.5493 50.6526 27.696C50.6526 26.832 50.85 26.0693 51.2446 25.408C51.65 24.736 52.1993 24.2133 52.8926 23.84C53.586 23.456 54.37 23.264 55.2446 23.264C56.0873 23.264 56.8446 23.4453 57.5166 23.808C58.1993 24.16 58.738 24.672 59.1326 25.344C59.5273 26.0053 59.7246 26.8 59.7246 27.728C59.7246 27.824 59.7193 27.936 59.7086 28.064C59.698 28.1813 59.6873 28.2933 59.6766 28.4H52.6846V26.944H58.3646L57.4046 27.376C57.4046 26.928 57.314 26.5387 57.1326 26.208C56.9513 25.8773 56.7006 25.6213 56.3806 25.44C56.0606 25.248 55.6873 25.152 55.2606 25.152C54.834 25.152 54.4553 25.248 54.1246 25.44C53.8046 25.6213 53.554 25.8827 53.3726 26.224C53.1913 26.5547 53.1006 26.9493 53.1006 27.408V27.792C53.1006 28.2613 53.202 28.6773 53.4046 29.04C53.618 29.392 53.9113 29.664 54.2846 29.856C54.6686 30.0373 55.1166 30.128 55.6286 30.128C56.0873 30.128 56.4873 30.0587 56.8286 29.92C57.1806 29.7813 57.5006 29.5733 57.7886 29.296L59.1166 30.736C58.722 31.184 58.226 31.5307 57.6286 31.776C57.0313 32.0107 56.3433 32.128 55.5646 32.128ZM61.3864 32V23.392H63.7704V25.824L63.4344 25.12C63.6904 24.512 64.101 24.0533 64.6664 23.744C65.2317 23.424 65.9197 23.264 66.7304 23.264V25.568C66.6237 25.5573 66.5277 25.552 66.4424 25.552C66.357 25.5413 66.2664 25.536 66.1704 25.536C65.4877 25.536 64.933 25.7333 64.5064 26.128C64.0904 26.512 63.8824 27.1147 63.8824 27.936V32H61.3864ZM70.8474 32L67.2314 23.392H69.8074L72.8154 30.8H71.5354L74.6554 23.392H77.0554L73.4234 32H70.8474ZM78.0739 32V23.392H80.5699V32H78.0739ZM79.3219 22.192C78.8632 22.192 78.4899 22.0587 78.2019 21.792C77.9139 21.5253 77.7699 21.1947 77.7699 20.8C77.7699 20.4053 77.9139 20.0747 78.2019 19.808C78.4899 19.5413 78.8632 19.408 79.3219 19.408C79.7805 19.408 80.1539 19.536 80.4419 19.792C80.7299 20.0373 80.8739 20.3573 80.8739 20.752C80.8739 21.168 80.7299 21.5147 80.4419 21.792C80.1645 22.0587 79.7912 22.192 79.3219 22.192ZM87.0464 32.128C86.1184 32.128 85.2917 31.9413 84.5664 31.568C83.841 31.184 83.2704 30.656 82.8544 29.984C82.449 29.312 82.2464 28.5493 82.2464 27.696C82.2464 26.832 82.449 26.0693 82.8544 25.408C83.2704 24.736 83.841 24.2133 84.5664 23.84C85.2917 23.456 86.1184 23.264 87.0464 23.264C87.953 23.264 88.7424 23.456 89.4144 23.84C90.0864 24.2133 90.5824 24.752 90.9024 25.456L88.9664 26.496C88.7424 26.0907 88.4597 25.792 88.1184 25.6C87.7877 25.408 87.425 25.312 87.0304 25.312C86.6037 25.312 86.2197 25.408 85.8784 25.6C85.537 25.792 85.265 26.064 85.0624 26.416C84.8704 26.768 84.7744 27.1947 84.7744 27.696C84.7744 28.1973 84.8704 28.624 85.0624 28.976C85.265 29.328 85.537 29.6 85.8784 29.792C86.2197 29.984 86.6037 30.08 87.0304 30.08C87.425 30.08 87.7877 29.9893 88.1184 29.808C88.4597 29.616 88.7424 29.312 88.9664 28.896L90.9024 29.952C90.5824 30.6453 90.0864 31.184 89.4144 31.568C88.7424 31.9413 87.953 32.128 87.0464 32.128ZM86.1344 35.712C85.857 35.712 85.585 35.68 85.3184 35.616C85.0624 35.552 84.8384 35.472 84.6464 35.376L85.0304 34.304C85.1904 34.3787 85.3557 34.4373 85.5264 34.48C85.697 34.5227 85.8784 34.544 86.0704 34.544C86.369 34.544 86.5824 34.496 86.7104 34.4C86.8384 34.304 86.9024 34.1813 86.9024 34.032C86.9024 33.8933 86.8384 33.7813 86.7104 33.696C86.593 33.6107 86.3957 33.568 86.1184 33.568H85.5744L85.9904 31.872H87.3184L87.0944 32.8C87.5744 32.8533 87.9264 33.0027 88.1504 33.248C88.3744 33.504 88.4864 33.7973 88.4864 34.128C88.4864 34.608 88.273 34.992 87.8464 35.28C87.4197 35.568 86.849 35.712 86.1344 35.712ZM96.3261 32.128C95.4088 32.128 94.5928 31.936 93.8781 31.552C93.1741 31.168 92.6141 30.6453 92.1981 29.984C91.7928 29.312 91.5901 28.5493 91.5901 27.696C91.5901 26.832 91.7928 26.0693 92.1981 25.408C92.6141 24.736 93.1741 24.2133 93.8781 23.84C94.5928 23.456 95.4088 23.264 96.3261 23.264C97.2328 23.264 98.0435 23.456 98.7581 23.84C99.4728 24.2133 100.033 24.7307 100.438 25.392C100.843 26.0533 101.046 26.8213 101.046 27.696C101.046 28.5493 100.843 29.312 100.438 29.984C100.033 30.6453 99.4728 31.168 98.7581 31.552C98.0435 31.936 97.2328 32.128 96.3261 32.128ZM96.3261 30.08C96.7421 30.08 97.1155 29.984 97.4461 29.792C97.7768 29.6 98.0381 29.328 98.2301 28.976C98.4221 28.6133 98.5181 28.1867 98.5181 27.696C98.5181 27.1947 98.4221 26.768 98.2301 26.416C98.0381 26.064 97.7768 25.792 97.4461 25.6C97.1155 25.408 96.7421 25.312 96.3261 25.312C95.9101 25.312 95.5368 25.408 95.2061 25.6C94.8755 25.792 94.6088 26.064 94.4061 26.416C94.2141 26.768 94.1181 27.1947 94.1181 27.696C94.1181 28.1867 94.2141 28.6133 94.4061 28.976C94.6088 29.328 94.8755 29.6 95.2061 29.792C95.5368 29.984 95.9101 30.08 96.3261 30.08ZM105.611 32.128C104.875 32.128 104.165 32.0427 103.483 31.872C102.811 31.6907 102.277 31.4667 101.883 31.2L102.715 29.408C103.109 29.6533 103.573 29.856 104.107 30.016C104.651 30.1653 105.184 30.24 105.707 30.24C106.283 30.24 106.688 30.1707 106.923 30.032C107.168 29.8933 107.291 29.7013 107.291 29.456C107.291 29.2533 107.195 29.104 107.003 29.008C106.821 28.9013 106.576 28.8213 106.266 28.768C105.957 28.7147 105.616 28.6613 105.243 28.608C104.88 28.5547 104.512 28.4853 104.139 28.4C103.765 28.304 103.424 28.1653 103.115 27.984C102.805 27.8027 102.555 27.5573 102.363 27.248C102.181 26.9387 102.09 26.5387 102.09 26.048C102.09 25.504 102.245 25.024 102.555 24.608C102.875 24.192 103.333 23.8667 103.931 23.632C104.528 23.3867 105.243 23.264 106.075 23.264C106.661 23.264 107.259 23.328 107.867 23.456C108.475 23.584 108.981 23.7707 109.387 24.016L108.555 25.792C108.139 25.5467 107.717 25.3813 107.291 25.296C106.875 25.2 106.469 25.152 106.075 25.152C105.52 25.152 105.115 25.2267 104.859 25.376C104.603 25.5253 104.475 25.7173 104.475 25.952C104.475 26.1653 104.565 26.3253 104.747 26.432C104.939 26.5387 105.189 26.624 105.499 26.688C105.808 26.752 106.144 26.8107 106.507 26.864C106.88 26.9067 107.253 26.976 107.627 27.072C108 27.168 108.336 27.3067 108.635 27.488C108.944 27.6587 109.195 27.8987 109.387 28.208C109.579 28.5067 109.675 28.9013 109.675 29.392C109.675 29.9253 109.515 30.4 109.195 30.816C108.875 31.2213 108.411 31.5413 107.803 31.776C107.205 32.0107 106.475 32.128 105.611 32.128Z" fill="#365B6D"/>
</svg>
