<svg width="166" height="56" viewBox="0 0 166 56" fill="none" xmlns="http://www.w3.org/2000/svg">
<rect x="0.5" y="0.732666" width="165" height="55" rx="10" fill="#41C1BA"/>
<path d="M55.1678 35.7327V21.7327H58.4078V33.0927H65.4278V35.7327H55.1678ZM72.0991 35.8927C70.9524 35.8927 69.9324 35.6527 69.0391 35.1727C68.1591 34.6927 67.4591 34.0393 66.9391 33.2127C66.4324 32.3727 66.1791 31.4193 66.1791 30.3527C66.1791 29.2727 66.4324 28.3193 66.9391 27.4927C67.4591 26.6527 68.1591 25.9993 69.0391 25.5327C69.9324 25.0527 70.9524 24.8127 72.0991 24.8127C73.2324 24.8127 74.2457 25.0527 75.1391 25.5327C76.0324 25.9993 76.7324 26.646 77.2391 27.4727C77.7457 28.2993 77.9991 29.2593 77.9991 30.3527C77.9991 31.4193 77.7457 32.3727 77.2391 33.2127C76.7324 34.0393 76.0324 34.6927 75.1391 35.1727C74.2457 35.6527 73.2324 35.8927 72.0991 35.8927ZM72.0991 33.3327C72.6191 33.3327 73.0857 33.2127 73.4991 32.9727C73.9124 32.7327 74.2391 32.3927 74.4791 31.9527C74.7191 31.4993 74.8391 30.966 74.8391 30.3527C74.8391 29.726 74.7191 29.1927 74.4791 28.7527C74.2391 28.3127 73.9124 27.9727 73.4991 27.7327C73.0857 27.4927 72.6191 27.3727 72.0991 27.3727C71.5791 27.3727 71.1124 27.4927 70.6991 27.7327C70.2857 27.9727 69.9524 28.3127 69.6991 28.7527C69.4591 29.1927 69.3391 29.726 69.3391 30.3527C69.3391 30.966 69.4591 31.4993 69.6991 31.9527C69.9524 32.3927 70.2857 32.7327 70.6991 32.9727C71.1124 33.2127 71.5791 33.3327 72.0991 33.3327ZM85.1445 39.7727C84.1312 39.7727 83.1512 39.646 82.2045 39.3927C81.2712 39.1527 80.4912 38.786 79.8645 38.2927L81.1045 36.0527C81.5579 36.426 82.1312 36.7193 82.8245 36.9327C83.5312 37.1593 84.2245 37.2727 84.9045 37.2727C86.0112 37.2727 86.8112 37.026 87.3045 36.5327C87.8112 36.0393 88.0645 35.306 88.0645 34.3327V32.7127L88.2645 30.0127L88.2245 27.2927V24.9727H91.1845V33.9327C91.1845 35.9327 90.6645 37.406 89.6245 38.3527C88.5845 39.2993 87.0912 39.7727 85.1445 39.7727ZM84.6645 35.2127C83.6645 35.2127 82.7579 34.9993 81.9445 34.5727C81.1445 34.1327 80.4979 33.526 80.0045 32.7527C79.5245 31.966 79.2845 31.0527 79.2845 30.0127C79.2845 28.9593 79.5245 28.046 80.0045 27.2727C80.4979 26.486 81.1445 25.8793 81.9445 25.4527C82.7579 25.026 83.6645 24.8127 84.6645 24.8127C85.5712 24.8127 86.3712 24.9993 87.0645 25.3727C87.7579 25.7327 88.2979 26.2993 88.6845 27.0727C89.0712 27.8327 89.2645 28.8127 89.2645 30.0127C89.2645 31.1993 89.0712 32.1793 88.6845 32.9527C88.2979 33.7127 87.7579 34.2793 87.0645 34.6527C86.3712 35.026 85.5712 35.2127 84.6645 35.2127ZM85.2845 32.6527C85.8312 32.6527 86.3179 32.546 86.7445 32.3327C87.1712 32.106 87.5045 31.7927 87.7445 31.3927C87.9845 30.9927 88.1045 30.5327 88.1045 30.0127C88.1045 29.4793 87.9845 29.0193 87.7445 28.6327C87.5045 28.2327 87.1712 27.926 86.7445 27.7127C86.3179 27.486 85.8312 27.3727 85.2845 27.3727C84.7379 27.3727 84.2512 27.486 83.8245 27.7127C83.3979 27.926 83.0579 28.2327 82.8045 28.6327C82.5645 29.0193 82.4445 29.4793 82.4445 30.0127C82.4445 30.5327 82.5645 30.9927 82.8045 31.3927C83.0579 31.7927 83.3979 32.106 83.8245 32.3327C84.2512 32.546 84.7379 32.6527 85.2845 32.6527ZM94.0884 35.7327V24.9727H97.2084V35.7327H94.0884ZM95.6484 23.4727C95.0751 23.4727 94.6084 23.306 94.2484 22.9727C93.8884 22.6393 93.7084 22.226 93.7084 21.7327C93.7084 21.2393 93.8884 20.826 94.2484 20.4927C94.6084 20.1593 95.0751 19.9927 95.6484 19.9927C96.2218 19.9927 96.6884 20.1527 97.0484 20.4727C97.4084 20.7793 97.5884 21.1793 97.5884 21.6727C97.5884 22.1927 97.4084 22.626 97.0484 22.9727C96.7018 23.306 96.2351 23.4727 95.6484 23.4727ZM106.644 24.8127C107.497 24.8127 108.257 24.986 108.924 25.3327C109.604 25.666 110.137 26.186 110.524 26.8927C110.911 27.586 111.104 28.4793 111.104 29.5727V35.7327H107.984V30.0527C107.984 29.186 107.791 28.546 107.404 28.1327C107.031 27.7193 106.497 27.5127 105.804 27.5127C105.311 27.5127 104.864 27.6193 104.464 27.8327C104.077 28.0327 103.771 28.346 103.544 28.7727C103.331 29.1993 103.224 29.746 103.224 30.4127V35.7327H100.104V24.9727H103.084V27.9527L102.524 27.0527C102.911 26.3327 103.464 25.7793 104.184 25.3927C104.904 25.006 105.724 24.8127 106.644 24.8127Z" fill="#365B6D"/>
</svg>
