<svg width="120" height="30" viewBox="0 0 120 30" fill="none" xmlns="http://www.w3.org/2000/svg">
<path d="M21.2956 0H8.71935C3.25662 0 0 3.255 0 8.715V21.27C0 26.745 3.25662 30 8.71935 30H21.2806C26.7433 30 29.9999 26.745 29.9999 21.285V8.715C30.015 3.255 26.7583 0 21.2956 0ZM15.0075 20.82C11.7959 20.82 9.18458 18.21 9.18458 15C9.18458 11.79 11.7959 9.18 15.0075 9.18C18.2191 9.18 20.8304 11.79 20.8304 15C20.8304 18.21 18.2191 20.82 15.0075 20.82ZM23.8919 7.32C23.8169 7.5 23.7118 7.665 23.5767 7.815C23.4267 7.95 23.2616 8.055 23.0815 8.13C22.9014 8.205 22.7063 8.25 22.5112 8.25C22.106 8.25 21.7308 8.1 21.4457 7.815C21.3106 7.665 21.2056 7.5 21.1305 7.32C21.0555 7.14 21.0105 6.945 21.0105 6.75C21.0105 6.555 21.0555 6.36 21.1305 6.18C21.2056 5.985 21.3106 5.835 21.4457 5.685C21.7909 5.34 22.3161 5.175 22.7964 5.28C22.9014 5.295 22.9915 5.325 23.0815 5.37C23.1715 5.4 23.2616 5.445 23.3516 5.505C23.4267 5.55 23.5017 5.625 23.5767 5.685C23.7118 5.835 23.8169 5.985 23.8919 6.18C23.9669 6.36 24.012 6.555 24.012 6.75C24.012 6.945 23.9669 7.14 23.8919 7.32Z" fill="#A58272"/>
<path d="M75 21.285C75 26.745 71.745 30 66.285 30H64.5C63.675 30 63 29.325 63 28.5V19.845C63 19.44 63.33 19.095 63.735 19.095L66.375 19.05C66.585 19.035 66.765 18.885 66.81 18.675L67.335 15.81C67.38 15.54 67.17 15.285 66.885 15.285L63.69 15.33C63.27 15.33 62.94 15 62.925 14.595L62.865 10.92C62.865 10.68 63.06 10.47 63.315 10.47L66.915 10.41C67.17 10.41 67.365 10.215 67.365 9.96001L67.305 6.35999C67.305 6.10499 67.11 5.91 66.855 5.91L62.805 5.97002C60.315 6.01502 58.335 8.055 58.38 10.545L58.455 14.67C58.47 15.09 58.14 15.42 57.72 15.435L55.92 15.465C55.665 15.465 55.47 15.66 55.47 15.915L55.515 18.765C55.515 19.02 55.71 19.215 55.965 19.215L57.765 19.185C58.185 19.185 58.515 19.515 58.53 19.92L58.665 28.47C58.68 29.31 58.005 30 57.165 30H53.715C48.255 30 45 26.745 45 21.27V8.715C45 3.255 48.255 0 53.715 0H66.285C71.745 0 75 3.255 75 8.715V21.285Z" fill="#A58272"/>
<path d="M112.5 0H97.5C93 0 90 3.75 90 9.375V20.625C90 26.25 93 30 97.5 30H112.5C117 30 120 26.25 120 20.625V9.375C120 3.75 117 0 112.5 0ZM107.835 16.9312L104.13 19.7063C102.63 20.8313 101.4 19.9688 101.4 17.775V12.2063C101.4 10.0125 102.63 9.15002 104.13 10.275L107.835 13.05C109.26 14.1375 109.26 15.8625 107.835 16.9312Z" fill="#A58272"/>
</svg>
