<svg width="50" height="50" viewBox="0 0 50 50" fill="none" xmlns="http://www.w3.org/2000/svg">
<g id="&#240;&#159;&#166;&#134; icon &#34;whatsapp&#34;">
<g id="Group">
<path id="Vector" d="M1.75505 50C1.29015 50 0.848422 49.814 0.522992 49.4886C0.0813364 49.0469 -0.104508 48.3961 0.0582073 47.7917L2.9871 36.8433C1.03452 33.2171 0.0116707 29.126 0.0116707 24.9883C0.0116707 11.2041 11.2158 0 25 0C38.7843 0 49.9884 11.2041 49.9884 24.9883C49.9884 38.7726 38.7843 49.9768 25 49.9768C20.7926 49.9768 16.6784 48.9307 13.0057 46.9317L2.21997 49.9303C2.05726 49.9768 1.91776 50 1.75505 50ZM13.2381 43.3287C13.5403 43.3287 13.8425 43.4219 14.1214 43.5614C17.399 45.4907 21.1646 46.5132 25 46.5132C36.8549 46.5132 46.5016 36.8666 46.5016 25.0116C46.5016 13.1567 36.8549 3.51002 25 3.51002C13.1451 3.51002 3.49843 13.1567 3.49843 25.0116C3.49843 28.8005 4.49794 32.4965 6.38079 35.7508C6.61324 36.146 6.68302 36.6341 6.56679 37.0758L4.24229 45.7694L12.7964 43.3984C12.9359 43.3519 13.0986 43.3287 13.2381 43.3287Z" fill="#365B6D"/>
<path id="Vector_2" d="M31.3695 38.3998C29.9283 38.3998 28.4407 38.0744 26.8832 37.4003C25.4188 36.7726 23.9544 35.9358 22.5364 34.8898C21.1417 33.867 19.7704 32.7048 18.5152 31.4495C17.26 30.171 16.0976 28.8228 15.0748 27.4281C14.0288 25.9637 13.192 24.5225 12.5876 23.1046C11.9367 21.5704 11.6113 20.0595 11.6113 18.6183C11.6113 17.5955 11.7972 16.6192 12.1459 15.7126C12.5178 14.7596 13.1222 13.8995 13.9126 13.1557C15.4002 11.6912 17.5389 11.1566 19.2358 11.9702C19.8169 12.2259 20.305 12.6443 20.6771 13.2022L23.3732 16.9911C23.6522 17.363 23.8616 17.7582 24.0243 18.1533C24.2103 18.6182 24.3265 19.0832 24.3265 19.5248C24.3265 20.1292 24.1636 20.7336 23.8381 21.2682C23.6289 21.6169 23.3268 22.0353 22.9316 22.4305L22.6294 22.7559C22.7689 22.9418 22.9316 23.1743 23.1873 23.4532C23.6754 24.0111 24.2101 24.6155 24.7912 25.1966C25.3723 25.7545 25.9534 26.3124 26.5346 26.8005C26.8135 27.033 27.0462 27.2189 27.2321 27.3352L27.5573 27.0097C27.9758 26.5913 28.3944 26.2659 28.8128 26.0567C29.5799 25.5685 30.7652 25.4523 31.8112 25.894C32.1831 26.0334 32.555 26.2426 32.9502 26.5216L36.8323 29.2645C37.367 29.6364 37.7852 30.1478 38.0641 30.7289C38.2965 31.3101 38.3898 31.8214 38.3898 32.3561C38.3898 33.0534 38.2268 33.7275 37.9246 34.3784C37.6224 34.9828 37.2738 35.5174 36.8554 36.0056C36.1115 36.8191 35.2517 37.4235 34.3219 37.8187C33.3921 38.2138 32.3923 38.3998 31.3695 38.3998ZM17.5388 15.1082C17.3993 15.1082 16.9345 15.1082 16.3534 15.6894C15.9118 16.1078 15.6095 16.5495 15.4003 17.0376C15.1911 17.5258 15.0981 18.0837 15.0981 18.6415C15.0981 19.6178 15.3305 20.6638 15.7954 21.7796C16.2836 22.9418 17.0042 24.1738 17.8875 25.4058C18.7941 26.6378 19.8169 27.8698 20.956 29.0088C22.095 30.1246 23.3035 31.1706 24.5587 32.1004C25.7675 32.9837 26.9997 33.681 28.2317 34.2157C29.9983 34.9828 31.6252 35.1687 32.9502 34.6109C33.4151 34.4249 33.8335 34.0995 34.2519 33.681C34.4611 33.4486 34.6241 33.2161 34.7635 32.914C34.8333 32.7512 34.8795 32.5653 34.8795 32.4026C34.8795 32.3561 34.8795 32.2863 34.8098 32.1469L30.9279 29.4505C30.7652 29.3342 30.6024 29.2412 30.463 29.1948C30.37 29.2412 30.2308 29.311 29.9751 29.5667L29.0918 30.45C28.4176 31.1241 27.3484 31.3101 26.4883 31.0079L26.0699 30.8219C25.5353 30.543 24.9307 30.1246 24.2566 29.5434C23.6057 28.9856 22.9783 28.4044 22.3042 27.7536C21.6533 27.0795 21.0722 26.4518 20.5143 25.801C19.9098 25.0804 19.4914 24.4993 19.2125 24.0111L18.9569 23.4067C18.8871 23.1743 18.8638 22.9186 18.8638 22.6861C18.8638 22.0353 19.0963 21.4542 19.538 20.9893L20.4214 20.0827C20.6771 19.827 20.77 19.6876 20.8165 19.5946C20.7468 19.4319 20.6538 19.2924 20.5376 19.1297L17.8177 15.2942L17.5388 15.1082Z" fill="#365B6D"/>
</g>
</g>
</svg>
