<svg width="234" height="171" viewBox="0 0 234 171" fill="none" xmlns="http://www.w3.org/2000/svg">
<path d="M138.815 85.8082L100.952 107.444V64.1724L138.815 85.8082Z" fill="black" stroke="black" stroke-width="16.2269" stroke-linecap="round" stroke-linejoin="round"/>
<path d="M9 93.462V78.1536C9 46.8319 9 31.1712 18.7955 21.0947C28.5911 11.0181 44.0129 10.5819 74.8562 9.70955C89.4716 9.29619 104.401 9 117.179 9C129.957 9 144.887 9.29619 159.502 9.70955C190.345 10.5819 205.767 11.0181 215.563 21.0947C225.358 31.1712 225.358 46.8319 225.358 78.1536V93.462C225.358 124.783 225.358 140.444 215.563 150.52C205.767 160.597 190.346 161.033 159.503 161.906C144.887 162.319 129.957 162.616 117.179 162.616C104.401 162.616 89.471 162.319 74.8552 161.906C44.0123 161.033 28.5909 160.597 18.7954 150.52C9 140.444 9 124.783 9 93.462Z" stroke="black" stroke-width="16.2269"/>
</svg>
